<svg height="52" width="52" xmlns="http://www.w3.org/2000/svg">
  <g fill="#2b2e32" fill-rule="evenodd">
    <path d="M31.943 238.308l-6.326-53.047a1.06 1.06 0 01.42-.975 1.026 1.026 0 011.043-.107l28.56 13.408c.276.129.594.129.87 0l47.093-21.73c.32-.146.692-.117.988.076s.474.525.475.882v69.681c-.007.344-.18.662-.462.853-.282.19-.638.23-.954.105L55.33 227.83a1.025 1.025 0 00-.87 0l-21.035 11.281c-.3.148-.65.14-.943-.019s-.494-.45-.54-.785z"/>
    <path d="M39.358 172.27v13.1c.003.406.229.776.585.959l1.822.957c.33.174.726.16 1.044-.035.318-.196.513-.545.514-.922v-4.29c.014-.42.264-.792.642-.959l26.436-11.837c.47-.202.733-.714.627-1.22s-.551-.866-1.061-.858H28.65a1.072 1.072 0 01-1.057-.958l-5.155-40.75a1.072 1.072 0 00-1.058-.957h-2.02c-.31 0-.604.136-.807.373s-.294.552-.25.862l5.985 44.524c.063.544.517.956 1.058.957h12.991c.56.025 1.005.485 1.02 1.054zM30.164 118.975h-23.5c-.51 0-.947-.371-1.038-.88L.018 86.94a1.087 1.087 0 01.066-.612l.604-1.456c.162-.386.53-.64.944-.651h30.75c.361 0 .697.188.888.498l2.134 3.39c.193.308.527.496.887.498h4.806c.325 0 .631-.153.83-.412l2.73-3.553c.2-.26.506-.411.83-.412h44.705c.352-.001.68.175.878.47l.803 1.206c.108.163.259.292.434.374l36.236 17.104c.483.23.722.788.557 1.303l-.472 1.484a1.069 1.069 0 01-.532.633c-.254.13-.549.15-.818.056L92.081 93.807a1.044 1.044 0 00-.916.089c-.276.17-.46.458-.5.783l-2.993 23.559a1.059 1.059 0 01-1.001.728H47.96a1.06 1.06 0 01-1.01-.766l-5.08-23.732a1.06 1.06 0 00-1.01-.766h-3.88c-.505-.001-.94.36-1.039.862l-4.72 23.55c-.101.508-.546.871-1.058.861zm-2.53-4.788l4.22-22.266a1.084 1.084 0 00-.198-.872l-1.001-1.417a1.053 1.053 0 00-.86-.45H5.806c-.31.001-.602.14-.802.38s-.286.555-.236.865l3.776 23.712c.084.52.528.902 1.048.9h16.995c.514.004.956-.368 1.048-.88zm18.788-22.305l4.135 22.343a1.06 1.06 0 001.02.785h31.336a1.06 1.06 0 001.01-.756l2.427-23.521c.099-.326.04-.68-.16-.953a1.053 1.053 0 00-.85-.436H48.31c-.334 0-.65.16-.85.431l-.868 1.178c-.19.258-.256.588-.18.9zM136.433 86.49s5.363.393 7.78-8.064c2.417-8.456 5.59-19.278-.5-31.287-6.09-12.01-21.423-25.293-35.424-20.504-14.002 4.788-10.867 27.37-1.36 39.83 9.508 12.46 26.559 21.318 29.504 20.025zM91.353 34.624l.076-.048c.944-.498 18.014-10.218 8.97-19.154C86.83 2.015 52.558-4.105 32.74 2.972h-.075c-.284.115-2.077.862-4.655 2.222C18.466 10.26-1.758 23.85 5.021 45.417A36.115 36.115 0 0013.52 58.93c.25.255.396.598.406.958L14 77.624a1.398 1.398 0 001.388 1.399h1.378a1.384 1.384 0 001.36-1.14c.784-4.271 3.777-19.154 7.1-21.165.129-.073.27-.122.415-.144 3.39-.488 45.961-8.571 65.712-21.95z"/>
  </g>
</svg>